<?xml version="1.0" encoding="UTF-8"?>
<!DOCTYPE svg PUBLIC "-//W3C//DTD SVG 1.1//EN" "http://www.w3.org/Graphics/SVG/1.1/DTD/svg11.dtd">
<!-- Creator: CorelDRAW -->
<svg xmlns="http://www.w3.org/2000/svg" xml:space="preserve" width="93.1049mm" height="37.7659mm" version="1.1" style="shape-rendering:geometricPrecision; text-rendering:geometricPrecision; image-rendering:optimizeQuality; fill-rule:evenodd; clip-rule:evenodd"
viewBox="0 0 9302.77 3773.46"
 xmlns:xlink="http://www.w3.org/1999/xlink"
 xmlns:xodm="http://www.corel.com/coreldraw/odm/2003">
 <defs>
  <style type="text/css">
   <![CDATA[
    .fil0 {fill:white;fill-rule:nonzero}
   ]]>
  </style>
 </defs>
 <g id="Katman_x0020_1">
  <metadata id="CorelCorpID_0Corel-Layer"/>
  <path class="fil0" d="M2916.72 2885.14c0,108.86 -14.13,206.08 -41.55,293.34 -27.43,86.42 -63.99,162.86 -109.69,228.51 -45.7,65.65 -98.06,122.16 -157.89,167.86 -60.66,46.53 -122.98,83.93 -188.63,113.02 -65.65,29.92 -132.95,51.52 -200.26,64.82 -67.3,14.12 -130.46,20.77 -191.12,20.77l-1141.76 0 0 -633.2 1141.76 0c86.42,0 150.41,-21.6 192.79,-65.65 42.37,-44.04 63.15,-107.2 63.15,-189.46l0 -1999.33c0,-82.26 -20.77,-145.42 -63.15,-188.63 -42.38,-42.37 -106.37,-63.98 -192.79,-63.98l-1141.76 0c-77.28,0 -139.6,24.09 -184.48,71.46 -45.7,48.2 -68.13,108.03 -68.13,181.15l0 857.57c0,82.26 21.6,145.42 65.65,189.46 44.04,44.04 108.02,65.65 191.95,65.65l1136.78 0 0 633.2 -1141.76 0c-59.83,0 -122.98,-6.64 -189.46,-20.77 -66.47,-13.3 -132.95,-34.9 -198.6,-64.82 -65.66,-29.09 -128.8,-66.47 -188.63,-113.02 -59.83,-45.7 -113.02,-102.21 -157.89,-167.85 -45.7,-65.66 -82.26,-142.1 -109.69,-228.52 -27.42,-87.26 -41.55,-185.31 -41.55,-293.34l0 -857.57c0,-59.83 6.64,-122.98 20.77,-189.46 13.3,-66.47 34.9,-132.95 63.99,-198.61 29.92,-65.65 67.3,-128.79 113.85,-188.62 45.7,-59.83 102.21,-113.02 167.85,-157.89 65.65,-45.7 141.27,-82.26 227.69,-109.69 85.59,-27.42 183.65,-41.55 291.67,-41.55l1141.76 0c60.66,0 123.82,6.64 191.12,20.77 67.31,14.13 134.62,34.9 200.26,64.82 65.66,29.09 127.97,66.47 188.63,113.01 59.83,45.71 112.19,102.22 157.89,167.86 45.7,65.65 82.26,141.26 109.69,227.69 27.42,85.59 41.55,183.65 41.55,291.67l0 1999.33zm3296.48 -1125.15c0,88.09 -15.79,181.99 -46.53,283.36 -30.75,102.22 -80.61,196.11 -149.58,282.54 -68.97,87.25 -158.72,159.55 -270.08,218.55 -111.35,58.16 -245.97,87.25 -405.51,87.25l-1141.76 0c-87.25,0 -181.98,-15.79 -283.35,-46.53 -101.39,-30.74 -196.12,-80.6 -282.54,-149.58 -87.25,-68.97 -159.55,-158.72 -217.72,-270.07 -58.99,-111.36 -88.08,-245.98 -88.08,-405.52 0,-87.25 15.79,-182.81 46.53,-285.02 30.74,-102.21 80.6,-196.11 149.58,-283.36 68.97,-86.42 159.55,-159.55 270.07,-217.71 111.36,-58.17 246.81,-88.09 405.51,-88.09l1141.76 0 0 604.12 -1141.76 0c-85.59,0 -152.06,26.6 -199.42,78.94 -47.37,53.19 -70.64,118 -70.64,196.11 0,83.1 27.43,147.09 81.44,193.62 54.84,46.53 118.82,68.97 193.61,68.97l1136.78 0c86.43,0 152.9,-25.76 199.43,-77.29 47.37,-52.35 70.63,-117.16 70.63,-195.28l0 -883.33c0,-83.09 -24.93,-148.74 -76.45,-197.77 -50.69,-48.2 -115.5,-72.3 -193.62,-72.3l-1390.22 0 0 -601.62 1390.22 0c88.09,0 181.99,15.79 283.36,46.53 102.21,30.74 196.11,80.6 282.54,149.58 87.25,68.97 159.55,158.72 218.54,270.07 58.17,111.35 87.26,245.97 87.26,405.51l0 888.31zm3089.56 871.7l-1716.79 0c-87.25,0 -182.81,-15.79 -286.68,-46.53 -103.87,-30.74 -200.26,-81.44 -288.35,-152.07 -88.92,-70.63 -162.87,-162.04 -221.87,-275.05 -59,-113.02 -88.92,-250.95 -88.92,-414.66l0 -857.57c0,-59.83 6.64,-122.98 20.77,-189.46 13.3,-66.47 34.9,-132.95 63.99,-198.61 29.92,-65.65 67.3,-128.79 113.85,-188.62 45.7,-59.83 102.21,-113.02 167.85,-157.89 65.65,-45.7 141.27,-82.26 227.69,-109.69 85.59,-27.42 183.65,-41.55 291.67,-41.55l1716.79 0 0 633.2 -1716.79 0c-82.26,0 -145.42,20.77 -188.63,63.15 -42.37,42.38 -63.98,107.2 -63.98,194.45l0 852.58c0,82.26 21.6,145.42 65.65,189.46 44.04,44.04 108.02,65.65 191.95,65.65l1711.81 0 0 633.2z"/>
  <path class="fil0" d="M3449.69 3146.57c0,4.6 -0.83,8.86 -2.43,12.78 -1.66,3.86 -3.92,7.28 -6.76,10.12 -2.84,2.84 -6.26,5.11 -10.2,6.76 -3.84,1.6 -8.1,2.43 -12.7,2.43l-229.68 0c-5.87,0 -12.21,-0.67 -18.97,-2.09 -6.78,-1.34 -13.47,-3.51 -20.06,-6.52 -6.61,-2.92 -12.96,-6.67 -18.97,-11.36 -6.1,-4.61 -11.37,-10.29 -16.06,-16.89 -4.67,-6.6 -8.35,-14.29 -11.11,-22.98 -2.85,-8.78 -4.18,-18.64 -4.18,-29.52l0 -172.42c0,-5.87 0.67,-12.21 2.09,-18.98 1.34,-6.77 3.51,-13.46 6.43,-20.05 2.93,-6.61 6.76,-12.96 11.53,-18.97 4.78,-6.02 10.37,-11.37 17.06,-16.06 6.59,-4.68 14.21,-8.35 22.9,-11.11 8.6,-2.85 18.39,-4.18 29.35,-4.18l258.85 0 0 63.6 -258.85 0c-8.36,0 -14.72,2.26 -19.06,6.69 -4.44,4.35 -6.69,10.87 -6.69,19.56l0 171.92c0,8.11 2.26,14.47 6.78,18.97 4.51,4.44 10.78,6.69 18.97,6.69l198.09 0 0 -79.82 -169.42 0 0 -64.11 201.01 0c4.6,0 8.86,0.84 12.7,2.51 3.94,1.75 7.36,4.1 10.2,7.01 2.85,2.93 5.11,6.35 6.76,10.12 1.6,3.85 2.43,8.01 2.43,12.37l0 143.51zm175.52 32.09l-28.42 0c-9.11,0 -18.89,-1.59 -29.26,-4.69 -10.36,-3.09 -20.05,-8.19 -29.01,-15.29 -8.94,-7.11 -16.38,-16.31 -22.32,-27.67 -5.85,-11.37 -8.77,-25.25 -8.77,-41.72l0 -287.27 63.7 0 0 287.27c0,7.77 2.43,14.05 7.26,18.72 4.94,4.61 11.03,6.94 18.39,6.94l28.42 0 0 63.69zm314.18 -87.68c0,8.85 -1.59,18.3 -4.68,28.5 -3.1,10.29 -8.11,19.73 -15.05,28.42 -6.93,8.78 -15.97,16.06 -27.17,21.99 -11.2,5.85 -24.73,8.77 -40.79,8.77l-114.84 0c-8.77,0 -18.29,-1.59 -28.5,-4.69 -10.19,-3.09 -19.73,-8.1 -28.42,-15.04 -8.78,-6.93 -16.05,-15.97 -21.89,-27.17 -5.95,-11.2 -8.87,-24.74 -8.87,-40.79 0,-8.77 1.59,-18.38 4.69,-28.67 3.09,-10.29 8.1,-19.72 15.04,-28.51 6.94,-8.69 16.06,-16.05 27.17,-21.9 11.2,-5.85 24.83,-8.85 40.79,-8.85l114.84 0 0 60.76 -114.84 0c-8.6,0 -15.29,2.68 -20.05,7.94 -4.77,5.35 -7.1,11.86 -7.1,19.72 0,8.35 2.76,14.79 8.19,19.47 5.52,4.69 11.95,6.94 19.47,6.94l114.34 0c8.69,0 15.38,-2.59 20.06,-7.77 4.77,-5.27 7.1,-11.79 7.1,-19.64l0 -88.86c0,-8.35 -2.51,-14.96 -7.68,-19.89 -5.11,-4.84 -11.62,-7.26 -19.48,-7.26l-139.82 0 0 -60.51 139.82 0c8.86,0 18.3,1.58 28.51,4.68 10.28,3.09 19.72,8.1 28.42,15.04 8.77,6.94 16.05,15.97 21.98,27.17 5.86,11.2 8.77,24.75 8.77,40.79l0 89.36zm344.78 -1.68c0,10.87 -1.42,20.73 -4.19,29.52 -2.76,8.69 -6.42,16.38 -11.03,22.98 -4.51,6.59 -9.85,12.28 -15.88,16.89 -6.02,4.69 -12.37,8.44 -18.97,11.36 -6.59,3.02 -13.29,5.19 -20.05,6.52 -6.77,1.42 -13.21,2.09 -19.23,2.09l-114.83 0c-10.95,0 -20.73,-1.42 -29.43,-4.18 -8.6,-2.76 -16.3,-6.44 -22.9,-11.11 -6.59,-4.69 -12.2,-10.04 -16.89,-16.06 -4.68,-6.02 -8.44,-12.37 -11.36,-18.97 -2.93,-6.6 -5.11,-13.28 -6.52,-20.06 -1.34,-6.76 -2.09,-13.11 -2.09,-18.97l0 -86.25c0,-16.31 3.01,-30.1 8.94,-41.47 6.02,-11.36 13.38,-20.55 22.32,-27.66 8.85,-7.1 18.55,-12.21 29,-15.3 10.45,-3.1 20.06,-4.68 28.93,-4.68l114.83 0 0 63.69 -114.34 0c-8.52,0 -14.97,2.17 -19.39,6.43 -4.43,4.35 -6.59,10.7 -6.59,18.97l0 85.75c0,8.61 2.17,15.14 6.51,19.56 4.26,4.43 10.62,6.6 18.97,6.6l114.83 0c8.61,0 15.05,-2.18 19.31,-6.6 4.26,-4.43 6.34,-10.79 6.34,-19.06l0 -287.27 63.7 0 0 287.27zm125.38 -229.68l-63.7 0 0 -57.59 63.7 0 0 57.59zm0 319.04l-63.7 0 0 -264.7 63.7 0 0 264.7zm334.24 -87.68c0,8.85 -1.59,18.3 -4.68,28.5 -3.1,10.29 -8.11,19.73 -15.05,28.42 -6.93,8.78 -15.97,16.06 -27.17,21.99 -11.2,5.85 -24.73,8.77 -40.79,8.77l-114.84 0c-8.77,0 -18.29,-1.59 -28.5,-4.69 -10.19,-3.09 -19.73,-8.1 -28.42,-15.04 -8.78,-6.93 -16.05,-15.97 -21.89,-27.17 -5.94,-11.2 -8.86,-24.74 -8.86,-40.79 0,-8.77 1.58,-18.38 4.68,-28.67 3.09,-10.29 8.1,-19.72 15.04,-28.51 6.94,-8.69 16.06,-16.05 27.17,-21.9 11.2,-5.85 24.83,-8.85 40.79,-8.85l114.84 0 0 60.76 -114.84 0c-8.6,0 -15.29,2.68 -20.05,7.94 -4.77,5.35 -7.1,11.86 -7.1,19.72 0,8.35 2.76,14.79 8.19,19.47 5.52,4.69 11.95,6.94 19.47,6.94l114.34 0c8.69,0 15.38,-2.59 20.06,-7.77 4.77,-5.27 7.1,-11.79 7.1,-19.64l0 -88.86c0,-8.35 -2.51,-14.96 -7.68,-19.89 -5.11,-4.84 -11.62,-7.26 -19.48,-7.26l-139.82 0 0 -60.51 139.82 0c8.86,0 18.31,1.58 28.51,4.68 10.28,3.09 19.72,8.1 28.42,15.04 8.77,6.94 16.05,15.97 21.98,27.17 5.86,11.2 8.77,24.75 8.77,40.79l0 89.36zm294.06 -113.34l-111.17 0 0 201.01 -64.36 0 0 -201.01 -82.75 0 0 -63.69 82.75 0 0 -86.43 64.36 0 0 86.43 111.17 0 0 63.69zm331.31 168.92c0,4.6 -0.75,8.86 -2.42,12.78 -1.68,3.86 -3.85,7.28 -6.77,10.12 -2.84,2.84 -6.19,5.11 -10.03,6.76 -3.84,1.6 -7.94,2.43 -12.37,2.43l-143.93 0c-7.85,0 -16.22,-0.92 -25.16,-2.68 -8.85,-1.84 -17.64,-4.69 -26.24,-8.69 -8.69,-4.01 -17.06,-9.1 -25.16,-15.21 -8.02,-6.1 -15.14,-13.54 -21.15,-22.23 -6.02,-8.77 -10.95,-18.89 -14.54,-30.26 -3.68,-11.45 -5.53,-24.32 -5.53,-38.7l0 -146.93 63.62 0 0 146.93c0,8.27 1.42,15.8 4.34,22.4 2.85,6.61 6.69,12.29 11.62,16.97 4.85,4.77 10.62,8.44 17.22,10.95 6.61,2.51 13.79,3.77 21.48,3.77l111.42 0 0 -201.01 63.61 0 0 232.61zm315.69 -57.26c0,10.87 -1.42,20.73 -4.18,29.52 -2.76,8.69 -6.43,16.38 -11.03,22.98 -4.53,6.59 -9.87,12.28 -15.89,16.89 -6.02,4.69 -12.37,8.44 -18.96,11.36 -6.61,3.02 -13.3,5.19 -20.06,6.52 -6.77,1.42 -13.21,2.09 -19.22,2.09l-172.44 0 0 -63.69 171.94 0c8.6,0 15.13,-2.18 19.55,-6.6 4.43,-4.43 6.6,-10.79 6.6,-19.06 -0.75,-16.97 -9.36,-25.49 -25.66,-25.49l-98.72 0c-14.04,0 -25.99,-2.42 -35.77,-7.35 -9.78,-4.85 -17.72,-11.03 -23.82,-18.39 -6.18,-7.34 -10.53,-15.21 -13.29,-23.73 -2.68,-8.44 -4.01,-16.39 -4.01,-23.73 0,-14.21 2.51,-26.17 7.59,-35.86 5.02,-9.69 11.45,-17.64 19.06,-23.65 7.69,-6.02 16.05,-10.37 24.99,-13.13 9.02,-2.68 17.39,-4.01 25.24,-4.01l156.47 0 0 63.69 -155.97 0c-3.26,0 -5.85,0.33 -7.68,1.08 -1.92,0.76 -3.27,1.68 -4.18,2.93 -0.92,1.26 -1.43,2.51 -1.6,3.94 -0.16,1.41 -0.25,2.76 -0.25,4.01 0.17,2.67 0.67,4.69 1.43,6.09 0.83,1.51 1.83,2.6 3.09,3.27 1.26,0.59 2.6,1 4.18,1.09 1.51,0.08 3.01,0.08 4.52,0.08l98.72 0c16.3,0 30.16,2.93 41.62,8.86 11.37,5.85 20.65,13.21 27.67,22.15 7.02,8.85 12.13,18.54 15.31,29 3.17,10.45 4.76,20.14 4.76,29.17zm-2095.3 683.46l-87.35 0 0 -118.2 -307.03 0 0 118.2 -87.36 0 0 -240.86c0,-35.09 6.07,-67.53 18.12,-97 12.15,-29.58 28.89,-55.02 50.43,-76.23 21.44,-21.33 46.9,-37.84 76.25,-49.76 29.36,-11.81 61.33,-17.77 96.07,-17.77l196.85 0c5.96,0 11.69,1.14 17.08,3.32 5.4,2.3 10.08,5.4 14.11,9.4 4.01,4.02 7.21,8.71 9.39,14.1 2.3,5.39 3.44,11.12 3.44,17.2l0 437.6zm-394.37 -205.56l307.03 0 0 -188.81 -153.51 0c-2.76,0 -8.37,0.46 -16.97,1.26 -8.6,0.8 -18.57,2.76 -29.93,5.85 -11.23,3.1 -23.15,7.91 -35.77,14.45 -12.49,6.53 -24.07,15.48 -34.62,26.83 -10.43,11.47 -19.14,25.8 -26.02,42.87 -6.77,17.09 -10.21,37.83 -10.21,62.26l0 35.3zm882.31 83.01c0,14.9 -1.96,28.43 -5.74,40.47 -3.79,11.92 -8.83,22.47 -15.14,31.52 -6.19,9.05 -13.52,16.86 -21.78,23.15 -8.25,6.42 -16.97,11.58 -26.03,15.6 -9.05,4.13 -18.22,7.1 -27.51,8.94 -9.29,1.95 -18.12,2.87 -26.38,2.87l-157.51 0c-15.03,0 -28.44,-1.95 -40.36,-5.74 -11.81,-3.79 -22.35,-8.82 -31.41,-15.25 -9.06,-6.42 -16.74,-13.75 -23.16,-22 -6.41,-8.26 -11.58,-16.98 -15.59,-26.04 -4.02,-9.05 -6.99,-18.22 -8.94,-27.51 -1.84,-9.29 -2.86,-18.01 -2.86,-26.02l0 -118.31c0,-22.36 4.12,-41.28 12.26,-56.86 8.25,-15.6 18.33,-28.21 30.61,-37.96 12.15,-9.74 25.45,-16.74 39.78,-20.97 14.33,-4.25 27.52,-6.41 39.67,-6.41l157.51 0 0 87.35 -156.83 0c-11.69,0 -20.51,2.98 -26.59,8.83 -6.08,5.97 -9.06,14.68 -9.06,26.03l0 117.61c0,11.81 2.98,20.76 8.95,26.84 5.85,6.07 14.56,9.05 26.02,9.05l157.51 0c11.82,0 20.64,-2.98 26.49,-9.05 5.85,-6.07 8.71,-14.79 8.71,-26.14l0 -394.04 87.37 0 0 394.04zm516.57 -240.52c-9.86,30.71 -21.43,60.87 -34.62,90.67 -13.19,29.81 -28.44,58.12 -45.51,85.18 -17.09,26.94 -36.23,51.94 -57.43,74.86 -21.21,22.93 -44.6,42.76 -70.17,59.5 -25.68,16.63 -53.54,29.7 -83.69,39.21 -30.03,9.51 -62.71,14.34 -97.9,14.34 -5.96,0 -11.69,-1.15 -17.08,-3.33 -5.4,-2.3 -10.1,-5.39 -14.11,-9.28 -4.02,-3.91 -7.22,-8.48 -9.4,-13.76 -2.3,-5.28 -3.44,-10.89 -3.44,-16.97l0 -320.42 87.36 0 0 273.07c21.31,0 41.74,-4.59 61.34,-13.76 19.6,-9.17 38.06,-21.32 55.59,-36.46 17.43,-15.13 33.59,-32.32 48.49,-51.59 14.92,-19.26 28.21,-38.98 39.79,-59.27 11.7,-20.29 21.55,-40.13 29.7,-59.61 8.25,-19.49 14.33,-36.92 18.33,-52.39l92.75 0zm394.95 242.8c0,12.16 -2.19,25.11 -6.43,39.1 -4.24,14.11 -11.12,27.06 -20.63,38.99 -9.51,12.03 -21.89,22.01 -37.25,30.15 -15.37,8.01 -33.94,12.03 -55.95,12.03l-157.51 0c-12.05,0 -25.11,-2.18 -39.1,-6.41 -13.99,-4.25 -27.06,-11.12 -38.98,-20.64 -12.04,-9.51 -22.02,-21.89 -30.05,-37.26 -8.14,-15.36 -12.15,-33.93 -12.15,-55.95 0,-12.03 2.18,-25.22 6.41,-39.32 4.25,-14.1 11.12,-27.05 20.64,-39.09 9.51,-11.93 22.01,-22.01 37.26,-30.04 15.36,-8.03 34.05,-12.15 55.95,-12.15l157.51 0 0 83.34 -157.51 0c-11.82,0 -20.99,3.66 -27.52,10.89 -6.54,7.34 -9.75,16.28 -9.75,27.06 0,11.46 3.79,20.29 11.23,26.71 7.57,6.41 16.4,9.51 26.72,9.51l156.83 0c11.92,0 21.1,-3.55 27.52,-10.65 6.53,-7.23 9.74,-16.17 9.74,-26.95l0 -121.87c0,-11.46 -3.44,-20.51 -10.54,-27.29 -6.99,-6.64 -15.94,-9.97 -26.72,-9.97l-191.8 0 0 -82.99 191.8 0c12.15,0 25.11,2.17 39.1,6.41 14.1,4.24 27.05,11.12 38.98,20.63 12.04,9.52 22,21.9 30.14,37.26 8.03,15.37 12.05,33.93 12.05,55.94l0 122.55zm476.91 120.27l-87.37 0 0 -201.54c0,-11.35 -1.95,-21.67 -5.85,-30.72 -3.89,-9.05 -9.16,-16.86 -15.94,-23.38 -6.75,-6.43 -14.56,-11.48 -23.73,-14.92 -9.05,-3.44 -18.8,-5.16 -29.34,-5.16l-152.82 0 0 275.72 -87.36 0 0 -319.74c0,-6.07 1.14,-11.69 3.44,-16.97 2.18,-5.28 5.39,-9.86 9.39,-13.76 4.02,-3.89 8.72,-6.98 14.11,-9.28 5.39,-2.18 11.12,-3.32 17.08,-3.32l196.85 0c11.01,0 22.58,1.25 34.73,3.67 12.28,2.52 24.31,6.41 36.35,11.92 11.92,5.5 23.38,12.5 34.16,20.85 10.89,8.37 20.51,18.58 28.89,30.5 8.48,12.03 15.14,25.91 20.06,41.51 4.94,15.7 7.34,33.36 7.34,53.08l0 201.54zm428.29 0l-236.84 0c-12.05,0 -25.22,-2.18 -39.56,-6.41 -14.33,-4.25 -27.63,-11.24 -39.78,-20.99 -12.27,-9.73 -22.47,-22.35 -30.61,-37.94 -8.13,-15.6 -12.27,-34.62 -12.27,-57.2l0 -118.31c0,-8.26 0.92,-16.98 2.87,-26.14 1.84,-9.18 4.82,-18.35 8.83,-27.41 4.13,-9.05 9.28,-17.77 15.71,-26.02 6.29,-8.25 14.1,-15.6 23.15,-21.78 9.06,-6.3 19.49,-11.35 31.41,-15.14 11.81,-3.79 25.34,-5.73 40.25,-5.73l236.84 0 0 87.35 -236.84 0c-11.35,0 -20.06,2.87 -26.03,8.72 -5.86,5.85 -8.83,14.79 -8.83,26.82l0 117.63c0,11.35 2.98,20.06 9.06,26.14 6.07,6.07 14.91,9.05 26.48,9.05l236.16 0 0 87.36zm460.18 -242.82c0,12.04 -2.18,25.11 -6.41,39.1 -4.25,13.99 -11.12,26.94 -20.64,38.98 -9.51,11.92 -22.01,22.01 -37.26,30.04 -15.36,8.14 -34.04,12.16 -55.94,12.16l-157.51 0 0 -83.01 157.51 0c11.81,0 20.98,-3.67 27.52,-10.89 6.53,-7.33 9.74,-16.28 9.74,-27.05 0,-11.47 -3.67,-20.41 -10.88,-26.84 -7.34,-6.52 -16.06,-9.74 -26.38,-9.74l-157.51 0c-11.94,0 -21.1,3.56 -27.52,10.9 -6.53,7.21 -9.74,16.27 -9.74,27.05l0 121.86c0,11.7 3.55,20.76 10.88,27.18 7.22,6.53 16.28,9.74 27.06,9.74l156.83 0 0 83.35 -157.51 0c-12.16,0 -25.11,-2.18 -39.1,-6.41 -14.11,-4.25 -27.07,-11.12 -38.99,-20.64 -12.03,-9.51 -22.01,-21.89 -30.15,-37.26 -8.01,-15.36 -12.03,-33.93 -12.03,-55.95l0 -122.55c0,-12.15 2.18,-25.11 6.41,-39.1 4.25,-14.1 11.12,-27.05 20.64,-38.98 9.51,-12.03 21.9,-22 37.26,-30.14 15.36,-8.02 33.93,-12.03 55.95,-12.03l157.51 0c12.04,0 25.11,2.17 39.1,6.41 13.99,4.24 27.06,11.12 38.98,20.63 11.92,9.52 22.01,21.9 30.04,37.26 8.02,15.37 12.15,33.93 12.15,55.94zm457.09 120.27c0,14.9 -1.95,28.43 -5.74,40.47 -3.78,11.92 -8.83,22.47 -15.13,31.52 -6.19,9.05 -13.53,16.86 -21.79,23.15 -8.25,6.42 -16.97,11.58 -26.02,15.6 -9.05,4.13 -18.22,7.1 -27.52,8.94 -9.28,1.95 -18.11,2.87 -26.37,2.87l-157.52 0c-15.02,0 -28.44,-1.95 -40.36,-5.74 -11.8,-3.79 -22.35,-8.82 -31.4,-15.25 -9.06,-6.42 -16.75,-13.75 -23.16,-22 -6.41,-8.26 -11.58,-16.98 -15.6,-26.04 -4.01,-9.05 -6.98,-18.22 -8.94,-27.51 -1.84,-9.29 -2.86,-18.01 -2.86,-26.02l0 -118.31c0,-22.36 4.13,-41.28 12.26,-56.86 8.25,-15.6 18.34,-28.21 30.61,-37.96 12.16,-9.74 25.45,-16.74 39.78,-20.97 14.33,-4.25 27.52,-6.41 39.67,-6.41l157.52 0 0 87.35 -156.83 0c-11.7,0 -20.52,2.98 -26.6,8.83 -6.07,5.97 -9.05,14.68 -9.05,26.03l0 117.61c0,11.81 2.98,20.76 8.94,26.84 5.85,6.07 14.56,9.05 26.02,9.05l157.52 0c11.81,0 20.63,-2.98 26.48,-9.05 5.85,-6.07 8.71,-14.79 8.71,-26.14l0 -394.04 87.37 0 0 394.04zm747.92 122.55l-315.04 0c-8.02,0 -16.74,-0.92 -26.02,-2.87 -9.29,-1.84 -18.46,-4.82 -27.52,-8.94 -9.06,-4.02 -17.78,-9.17 -26.03,-15.6 -8.36,-6.29 -15.6,-14.1 -22.01,-23.15 -6.41,-9.05 -11.46,-19.6 -15.25,-31.52 -3.9,-12.04 -5.73,-25.57 -5.73,-40.47l0 -236.51c0,-8.03 0.91,-16.74 2.87,-26.03 1.82,-9.28 4.82,-18.45 8.82,-27.52 4.01,-9.05 9.28,-17.77 15.83,-26.02 6.52,-8.25 14.21,-15.6 23.38,-22.01 9.05,-6.41 19.49,-11.46 31.41,-15.25 11.8,-3.9 25.22,-5.73 40.24,-5.73l315.04 0 0 87.24 -315.04 0c-11.46,0 -20.17,3.1 -26.14,9.17 -6.07,5.97 -9.17,14.9 -9.17,26.82l0 235.83c0,11.11 3.1,19.83 9.29,26.02 6.18,6.07 14.78,9.17 26.02,9.17l315.04 0 0 87.36zm232.38 0l-38.97 0c-12.51,0 -25.92,-2.18 -40.14,-6.41 -14.22,-4.25 -27.51,-11.24 -39.78,-20.99 -12.27,-9.73 -22.47,-22.35 -30.6,-37.94 -8.03,-15.6 -12.05,-34.62 -12.05,-57.2l0 -394.04 87.37 0 0 394.04c0,10.65 3.32,19.25 9.97,25.68 6.76,6.3 15.13,9.51 25.23,9.51l38.97 0 0 87.36zm144.8 -437.6l-87.36 0 0 -78.99 87.36 0 0 78.99zm0 437.6l-87.36 0 0 -363.07 87.36 0 0 363.07zm474.27 -242.82c0,12.04 -2.18,25.11 -6.41,39.1 -4.25,13.99 -11.12,26.94 -20.64,38.98 -9.51,11.92 -22,22.01 -37.26,30.04 -15.36,8.14 -34.04,12.16 -55.93,12.16l-157.52 0 0 -83.01 157.52 0c11.81,0 20.97,-3.67 27.51,-10.89 6.54,-7.33 9.75,-16.28 9.75,-27.05 0,-11.47 -3.68,-20.41 -10.89,-26.84 -7.34,-6.52 -16.06,-9.74 -26.37,-9.74l-157.52 0c-11.93,0 -21.1,3.56 -27.52,10.9 -6.53,7.21 -9.74,16.27 -9.74,27.05l0 121.86c0,11.7 3.55,20.76 10.89,27.18 7.21,6.53 16.27,9.74 27.05,9.74l156.84 0 0 83.35 -157.52 0c-12.15,0 -25.11,-2.18 -39.1,-6.41 -14.11,-4.25 -27.06,-11.12 -38.99,-20.64 -12.03,-9.51 -22,-21.89 -30.14,-37.26 -8.02,-15.36 -12.04,-33.93 -12.04,-55.95l0 -122.55c0,-12.15 2.18,-25.11 6.42,-39.1 4.24,-14.1 11.12,-27.05 20.63,-38.98 9.51,-12.03 21.9,-22 37.26,-30.14 15.37,-8.02 33.93,-12.03 55.95,-12.03l157.52 0c12.03,0 25.1,2.17 39.09,6.41 13.99,4.24 27.06,11.12 38.98,20.63 11.92,9.52 22.01,21.9 30.05,37.26 8.02,15.37 12.14,33.93 12.14,55.94zm461.11 242.82l-87.37 0 0 -201.54c0,-11.35 -1.95,-21.67 -5.85,-30.72 -3.89,-9.05 -9.16,-16.86 -15.94,-23.38 -6.75,-6.43 -14.56,-11.48 -23.73,-14.92 -9.05,-3.44 -18.8,-5.16 -29.34,-5.16l-152.82 0 0 275.72 -87.36 0 0 -319.74c0,-6.07 1.14,-11.69 3.44,-16.97 2.18,-5.28 5.39,-9.86 9.39,-13.76 4.02,-3.89 8.71,-6.98 14.11,-9.28 5.39,-2.18 11.12,-3.32 17.08,-3.32l196.85 0c11.01,0 22.58,1.25 34.73,3.67 12.27,2.52 24.31,6.41 36.35,11.92 11.92,5.5 23.38,12.5 34.16,20.85 10.89,8.37 20.51,18.58 28.89,30.5 8.48,12.03 15.14,25.91 20.06,41.51 4.94,15.7 7.34,33.36 7.34,53.08l0 201.54zm395.98 -275.72l-152.48 0 0 275.72 -88.27 0 0 -275.72 -113.5 0 0 -87.35 113.5 0 0 -118.54 88.27 0 0 118.54 152.48 0 0 87.35z"/>
 </g>
</svg>
